<svg xmlns="http://www.w3.org/2000/svg" viewBox="0 0 665.04 198.62"><defs><style>.cls-1{fill:#0020ff;}.cls-2{fill:#fff;}.cls-3{fill:#93f266;}</style></defs><title>Asset 4</title><g id="Layer_2" data-name="Layer 2"><g id="Layer_1-2" data-name="Layer 1"><circle class="cls-1" cx="99.31" cy="99.31" r="99.31"/><path class="cls-2" d="M126.73,154.28l0,21.91a322.36,322.36,0,0,1-54.88,0q0-27.28,0-54.56C89.76,133.18,107.87,144.45,126.73,154.28Z"/><path class="cls-3" d="M163.84,39.72l2,49.58c-13,1.07-26.11,1.8-39.16,2.19-18.07,10.45-36.22,20.56-54.76,30.14,0-12.06,0-18.08,0-30.14-13-.39-26.15-1.12-39.16-2.19l2-49.58Z"/><path class="cls-1" d="M305.54,66.92V85.05H283.4V148.1H263.34v-63H241.19V66.92Z"/><path class="cls-1" d="M331,122V148.1H311V66.92h29.65q18.76,0,26.67,6.35t7.9,21.1q0,10-4.21,16.25t-12.76,9.13L378,148.1H353.94L337.11,122Zm23.83-27.58q0-5.18-3.11-7.25t-11.13-2.07H331v20.71h9.59q8,0,11.13-2.52T354.85,94.37Z"/><path class="cls-1" d="M401.59,148.1H380.48l30-81.18h20.85l29.26,81.18h-21l-4.27-13.59H405.86Zm18.9-61.24q-1,3.63-2.26,7.7c-.83,2.72-2.18,7.15-4.08,13.28l-3.37,10.74h19.55L427,107.84q-1.7-4.92-3.37-10.43T420.49,86.86Z"/><path class="cls-1" d="M493.71,148.1H465.35V66.92h28.36q12.44,0,19.74,2.07a25.77,25.77,0,0,1,11.72,6.61,26.87,26.87,0,0,1,6.41,12.23,79.61,79.61,0,0,1,2,19.62q0,21.11-9.45,30.88T493.71,148.1Zm15.92-57.87a10.18,10.18,0,0,0-5.3-4q-3.49-1.23-10.62-1.23h-8.29v44.28h8.29q7,0,10.49-1.17a10.76,10.76,0,0,0,5.43-3.75,17,17,0,0,0,2.46-6.54,57.14,57.14,0,0,0,.78-10.42,57.93,57.93,0,0,0-.78-10.55A18.3,18.3,0,0,0,509.63,90.23Z"/><path class="cls-1" d="M587.82,66.92h20.72l-28.35,51.66V148.1H560.12V118.58L531,66.92H553.9l16.32,33.92Z"/><path class="cls-1" d="M665,129.33V148.1H613.25V66.92h20.07v62.41Z"/></g></g></svg>